<mxfile host="app.diagrams.net" modified="2023-03-03T02:35:57.326Z" agent="5.0 (Windows)" etag="on6NFYIQDAgknV5x1rei" version="20.8.23" type="github">
  <diagram name="Page-1" id="DfGPnY6M846y4iwHlGjr">
    <mxGraphModel dx="1323" dy="1790" grid="1" gridSize="10" guides="1" tooltips="1" connect="1" arrows="1" fold="1" page="1" pageScale="1" pageWidth="850" pageHeight="1100" math="0" shadow="0">
      <root>
        <mxCell id="0" />
        <mxCell id="1" parent="0" />
        <mxCell id="x02DuIUV53BcLxC4NhVb-1" value="Store Managment" style="shape=umlActor;verticalLabelPosition=bottom;verticalAlign=top;html=1;outlineConnect=0;fontFamily=Verdana;labelPosition=center;align=center;" parent="1" vertex="1">
          <mxGeometry x="200" y="240" width="30" height="60" as="geometry" />
        </mxCell>
        <mxCell id="TQAo5eHOmgCXGhLiHmUq-3" value="" style="rounded=1;whiteSpace=wrap;html=1;" parent="1" vertex="1">
          <mxGeometry x="370" y="-2.5" width="760" height="715" as="geometry" />
        </mxCell>
        <mxCell id="x02DuIUV53BcLxC4NhVb-4" value="" style="endArrow=none;html=1;rounded=0;fontFamily=Verdana;entryX=0;entryY=0.5;entryDx=0;entryDy=0;" parent="1" target="hgeuyvNvbL8LLEkFCdXO-1" edge="1">
          <mxGeometry width="50" height="50" relative="1" as="geometry">
            <mxPoint x="240" y="270" as="sourcePoint" />
            <mxPoint x="380" y="130" as="targetPoint" />
          </mxGeometry>
        </mxCell>
        <mxCell id="x02DuIUV53BcLxC4NhVb-5" value="" style="endArrow=none;html=1;rounded=0;fontFamily=Verdana;entryX=0;entryY=0.5;entryDx=0;entryDy=0;" parent="1" target="TQAo5eHOmgCXGhLiHmUq-6" edge="1">
          <mxGeometry width="50" height="50" relative="1" as="geometry">
            <mxPoint x="240" y="270" as="sourcePoint" />
            <mxPoint x="400" y="250" as="targetPoint" />
          </mxGeometry>
        </mxCell>
        <mxCell id="hgeuyvNvbL8LLEkFCdXO-1" value="Add Item" style="ellipse;whiteSpace=wrap;html=1;" parent="1" vertex="1">
          <mxGeometry x="400" y="100" width="90" height="50" as="geometry" />
        </mxCell>
        <mxCell id="TQAo5eHOmgCXGhLiHmUq-1" value="" style="endArrow=none;html=1;rounded=0;" parent="1" edge="1">
          <mxGeometry width="50" height="50" relative="1" as="geometry">
            <mxPoint x="240" y="270" as="sourcePoint" />
            <mxPoint x="400" y="190" as="targetPoint" />
          </mxGeometry>
        </mxCell>
        <mxCell id="TQAo5eHOmgCXGhLiHmUq-4" value="Remove Item" style="ellipse;whiteSpace=wrap;html=1;" parent="1" vertex="1">
          <mxGeometry x="400" y="170" width="90" height="50" as="geometry" />
        </mxCell>
        <mxCell id="TQAo5eHOmgCXGhLiHmUq-6" value="Add Category" style="ellipse;whiteSpace=wrap;html=1;" parent="1" vertex="1">
          <mxGeometry x="395" y="330" width="100" height="50" as="geometry" />
        </mxCell>
        <mxCell id="TQAo5eHOmgCXGhLiHmUq-8" value="Inventory Management System" style="text;html=1;strokeColor=none;fillColor=none;align=center;verticalAlign=middle;whiteSpace=wrap;rounded=0;" parent="1" vertex="1">
          <mxGeometry x="565" y="20" width="240" height="30" as="geometry" />
        </mxCell>
        <mxCell id="TQAo5eHOmgCXGhLiHmUq-11" value="View Category/item Info" style="ellipse;whiteSpace=wrap;html=1;" parent="1" vertex="1">
          <mxGeometry x="390" y="562.5" width="90" height="70" as="geometry" />
        </mxCell>
        <mxCell id="TQAo5eHOmgCXGhLiHmUq-12" value="Edit Item" style="ellipse;whiteSpace=wrap;html=1;" parent="1" vertex="1">
          <mxGeometry x="397.5" y="230" width="95" height="50" as="geometry" />
        </mxCell>
        <mxCell id="TQAo5eHOmgCXGhLiHmUq-13" value="" style="endArrow=none;html=1;rounded=0;entryX=0;entryY=0.5;entryDx=0;entryDy=0;" parent="1" target="TQAo5eHOmgCXGhLiHmUq-12" edge="1">
          <mxGeometry width="50" height="50" relative="1" as="geometry">
            <mxPoint x="240" y="270" as="sourcePoint" />
            <mxPoint x="440" y="260" as="targetPoint" />
          </mxGeometry>
        </mxCell>
        <mxCell id="TQAo5eHOmgCXGhLiHmUq-14" value="" style="endArrow=none;html=1;rounded=0;exitX=0;exitY=0.5;exitDx=0;exitDy=0;" parent="1" source="TQAo5eHOmgCXGhLiHmUq-11" edge="1">
          <mxGeometry width="50" height="50" relative="1" as="geometry">
            <mxPoint x="270" y="410" as="sourcePoint" />
            <mxPoint x="240" y="270" as="targetPoint" />
          </mxGeometry>
        </mxCell>
        <mxCell id="TQAo5eHOmgCXGhLiHmUq-15" value="View Totals for sales of category" style="ellipse;whiteSpace=wrap;html=1;" parent="1" vertex="1">
          <mxGeometry x="517.5" y="620" width="100" height="55" as="geometry" />
        </mxCell>
        <mxCell id="TQAo5eHOmgCXGhLiHmUq-16" value="" style="endArrow=none;html=1;rounded=0;entryX=1;entryY=1;entryDx=0;entryDy=0;exitX=0;exitY=0.5;exitDx=0;exitDy=0;" parent="1" source="TQAo5eHOmgCXGhLiHmUq-15" target="TQAo5eHOmgCXGhLiHmUq-11" edge="1">
          <mxGeometry width="50" height="50" relative="1" as="geometry">
            <mxPoint x="500" y="470" as="sourcePoint" />
            <mxPoint x="550" y="420" as="targetPoint" />
          </mxGeometry>
        </mxCell>
        <mxCell id="TQAo5eHOmgCXGhLiHmUq-17" value="View Stock amounts for items" style="ellipse;whiteSpace=wrap;html=1;" parent="1" vertex="1">
          <mxGeometry x="660" y="570" width="90" height="55" as="geometry" />
        </mxCell>
        <mxCell id="TQAo5eHOmgCXGhLiHmUq-18" value="" style="endArrow=none;html=1;rounded=0;entryX=0;entryY=0.5;entryDx=0;entryDy=0;exitX=1;exitY=0.5;exitDx=0;exitDy=0;" parent="1" source="TQAo5eHOmgCXGhLiHmUq-11" target="TQAo5eHOmgCXGhLiHmUq-17" edge="1">
          <mxGeometry width="50" height="50" relative="1" as="geometry">
            <mxPoint x="500" y="480" as="sourcePoint" />
            <mxPoint x="550" y="430" as="targetPoint" />
          </mxGeometry>
        </mxCell>
        <mxCell id="TQAo5eHOmgCXGhLiHmUq-19" value="View items in a sorted format" style="ellipse;whiteSpace=wrap;html=1;" parent="1" vertex="1">
          <mxGeometry x="517.5" y="523" width="100" height="55" as="geometry" />
        </mxCell>
        <mxCell id="TQAo5eHOmgCXGhLiHmUq-20" value="" style="endArrow=none;html=1;rounded=0;exitX=1;exitY=0;exitDx=0;exitDy=0;entryX=0;entryY=0.5;entryDx=0;entryDy=0;" parent="1" source="TQAo5eHOmgCXGhLiHmUq-11" target="TQAo5eHOmgCXGhLiHmUq-19" edge="1">
          <mxGeometry width="50" height="50" relative="1" as="geometry">
            <mxPoint x="500" y="410" as="sourcePoint" />
            <mxPoint x="550" y="360" as="targetPoint" />
          </mxGeometry>
        </mxCell>
        <mxCell id="p8vY9JxcMufCk-BUBVPy-1" value="Select Category File" style="ellipse;whiteSpace=wrap;html=1;" parent="1" vertex="1">
          <mxGeometry x="517.5" y="165" width="125" height="60" as="geometry" />
        </mxCell>
        <mxCell id="p8vY9JxcMufCk-BUBVPy-2" value="" style="endArrow=none;html=1;rounded=0;exitX=1;exitY=0.5;exitDx=0;exitDy=0;entryX=0;entryY=0;entryDx=0;entryDy=0;" parent="1" source="hgeuyvNvbL8LLEkFCdXO-1" target="p8vY9JxcMufCk-BUBVPy-1" edge="1">
          <mxGeometry width="50" height="50" relative="1" as="geometry">
            <mxPoint x="490" y="140" as="sourcePoint" />
            <mxPoint x="540" y="90" as="targetPoint" />
          </mxGeometry>
        </mxCell>
        <mxCell id="p8vY9JxcMufCk-BUBVPy-3" value="" style="endArrow=none;html=1;rounded=0;exitX=1;exitY=0.5;exitDx=0;exitDy=0;entryX=0;entryY=0.5;entryDx=0;entryDy=0;" parent="1" source="TQAo5eHOmgCXGhLiHmUq-4" target="p8vY9JxcMufCk-BUBVPy-1" edge="1">
          <mxGeometry width="50" height="50" relative="1" as="geometry">
            <mxPoint x="500" y="210" as="sourcePoint" />
            <mxPoint x="550" y="150" as="targetPoint" />
          </mxGeometry>
        </mxCell>
        <mxCell id="p8vY9JxcMufCk-BUBVPy-4" value="" style="endArrow=none;html=1;rounded=0;exitX=1;exitY=0.5;exitDx=0;exitDy=0;entryX=0;entryY=1;entryDx=0;entryDy=0;" parent="1" source="TQAo5eHOmgCXGhLiHmUq-12" target="p8vY9JxcMufCk-BUBVPy-1" edge="1">
          <mxGeometry width="50" height="50" relative="1" as="geometry">
            <mxPoint x="500" y="250" as="sourcePoint" />
            <mxPoint x="550" y="200" as="targetPoint" />
          </mxGeometry>
        </mxCell>
        <mxCell id="p8vY9JxcMufCk-BUBVPy-5" value="" style="endArrow=none;html=1;rounded=0;exitX=1;exitY=0;exitDx=0;exitDy=0;entryX=0;entryY=0.5;entryDx=0;entryDy=0;" parent="1" source="p8vY9JxcMufCk-BUBVPy-1" target="p8vY9JxcMufCk-BUBVPy-9" edge="1">
          <mxGeometry width="50" height="50" relative="1" as="geometry">
            <mxPoint x="640" y="180" as="sourcePoint" />
            <mxPoint x="690" y="130" as="targetPoint" />
          </mxGeometry>
        </mxCell>
        <mxCell id="p8vY9JxcMufCk-BUBVPy-6" value="" style="endArrow=none;html=1;rounded=0;exitX=1;exitY=0.5;exitDx=0;exitDy=0;entryX=0;entryY=0.5;entryDx=0;entryDy=0;" parent="1" source="p8vY9JxcMufCk-BUBVPy-1" target="p8vY9JxcMufCk-BUBVPy-10" edge="1">
          <mxGeometry width="50" height="50" relative="1" as="geometry">
            <mxPoint x="660" y="220" as="sourcePoint" />
            <mxPoint x="710" y="170" as="targetPoint" />
          </mxGeometry>
        </mxCell>
        <mxCell id="p8vY9JxcMufCk-BUBVPy-7" value="" style="endArrow=none;html=1;rounded=0;entryX=0.5;entryY=1;entryDx=0;entryDy=0;exitX=0;exitY=0.5;exitDx=0;exitDy=0;" parent="1" source="p8vY9JxcMufCk-BUBVPy-35" target="p8vY9JxcMufCk-BUBVPy-1" edge="1">
          <mxGeometry width="50" height="50" relative="1" as="geometry">
            <mxPoint x="690" y="250" as="sourcePoint" />
            <mxPoint x="740" y="200" as="targetPoint" />
          </mxGeometry>
        </mxCell>
        <mxCell id="p8vY9JxcMufCk-BUBVPy-9" value="Enter item info" style="ellipse;whiteSpace=wrap;html=1;" parent="1" vertex="1">
          <mxGeometry x="710" y="60" width="110" height="50" as="geometry" />
        </mxCell>
        <mxCell id="p8vY9JxcMufCk-BUBVPy-10" value="Select Item for Removal" style="ellipse;whiteSpace=wrap;html=1;" parent="1" vertex="1">
          <mxGeometry x="660" y="170" width="110" height="50" as="geometry" />
        </mxCell>
        <mxCell id="p8vY9JxcMufCk-BUBVPy-12" value="Remove Category" style="ellipse;whiteSpace=wrap;html=1;" parent="1" vertex="1">
          <mxGeometry x="380" y="420" width="110" height="55" as="geometry" />
        </mxCell>
        <mxCell id="p8vY9JxcMufCk-BUBVPy-13" value="" style="endArrow=none;html=1;rounded=0;entryX=0;entryY=0.5;entryDx=0;entryDy=0;" parent="1" target="p8vY9JxcMufCk-BUBVPy-12" edge="1">
          <mxGeometry width="50" height="50" relative="1" as="geometry">
            <mxPoint x="240" y="270" as="sourcePoint" />
            <mxPoint x="390" y="330" as="targetPoint" />
          </mxGeometry>
        </mxCell>
        <mxCell id="p8vY9JxcMufCk-BUBVPy-14" value="" style="rhombus;whiteSpace=wrap;html=1;" parent="1" vertex="1">
          <mxGeometry x="805" y="432.5" width="30" height="30" as="geometry" />
        </mxCell>
        <mxCell id="p8vY9JxcMufCk-BUBVPy-16" value="" style="endArrow=none;html=1;rounded=0;exitX=1;exitY=0.5;exitDx=0;exitDy=0;entryX=0;entryY=0.5;entryDx=0;entryDy=0;" parent="1" source="p8vY9JxcMufCk-BUBVPy-12" target="p8vY9JxcMufCk-BUBVPy-17" edge="1">
          <mxGeometry width="50" height="50" relative="1" as="geometry">
            <mxPoint x="500" y="380" as="sourcePoint" />
            <mxPoint x="550" y="330" as="targetPoint" />
          </mxGeometry>
        </mxCell>
        <mxCell id="p8vY9JxcMufCk-BUBVPy-17" value="Select Category" style="ellipse;whiteSpace=wrap;html=1;" parent="1" vertex="1">
          <mxGeometry x="517.5" y="422.5" width="102.5" height="50" as="geometry" />
        </mxCell>
        <mxCell id="p8vY9JxcMufCk-BUBVPy-18" value="" style="endArrow=none;html=1;rounded=0;exitX=1;exitY=0.5;exitDx=0;exitDy=0;entryX=0;entryY=0.5;entryDx=0;entryDy=0;" parent="1" source="p8vY9JxcMufCk-BUBVPy-17" target="p8vY9JxcMufCk-BUBVPy-19" edge="1">
          <mxGeometry width="50" height="50" relative="1" as="geometry">
            <mxPoint x="680" y="370" as="sourcePoint" />
            <mxPoint x="730" y="320" as="targetPoint" />
          </mxGeometry>
        </mxCell>
        <mxCell id="p8vY9JxcMufCk-BUBVPy-19" value="Authorization" style="ellipse;whiteSpace=wrap;html=1;" parent="1" vertex="1">
          <mxGeometry x="642.5" y="427.5" width="90" height="40" as="geometry" />
        </mxCell>
        <mxCell id="p8vY9JxcMufCk-BUBVPy-20" value="" style="endArrow=none;html=1;rounded=0;exitX=1;exitY=0.5;exitDx=0;exitDy=0;entryX=0;entryY=0.5;entryDx=0;entryDy=0;" parent="1" source="p8vY9JxcMufCk-BUBVPy-19" target="p8vY9JxcMufCk-BUBVPy-14" edge="1">
          <mxGeometry width="50" height="50" relative="1" as="geometry">
            <mxPoint x="780" y="350" as="sourcePoint" />
            <mxPoint x="830" y="300" as="targetPoint" />
          </mxGeometry>
        </mxCell>
        <mxCell id="p8vY9JxcMufCk-BUBVPy-21" value="Confirm" style="text;html=1;strokeColor=none;fillColor=none;align=center;verticalAlign=middle;whiteSpace=wrap;rounded=0;" parent="1" vertex="1">
          <mxGeometry x="735" y="423.75" width="60" height="15" as="geometry" />
        </mxCell>
        <mxCell id="p8vY9JxcMufCk-BUBVPy-22" value="Cancel" style="text;html=1;strokeColor=none;fillColor=none;align=center;verticalAlign=middle;whiteSpace=wrap;rounded=0;" parent="1" vertex="1">
          <mxGeometry x="735" y="451.25" width="60" height="20" as="geometry" />
        </mxCell>
        <mxCell id="p8vY9JxcMufCk-BUBVPy-23" value="Category Removed" style="ellipse;whiteSpace=wrap;html=1;" parent="1" vertex="1">
          <mxGeometry x="860" y="394.25" width="120" height="44.5" as="geometry" />
        </mxCell>
        <mxCell id="p8vY9JxcMufCk-BUBVPy-24" value="" style="endArrow=none;html=1;rounded=0;exitX=0.5;exitY=0;exitDx=0;exitDy=0;entryX=0;entryY=0.5;entryDx=0;entryDy=0;" parent="1" source="p8vY9JxcMufCk-BUBVPy-14" target="p8vY9JxcMufCk-BUBVPy-23" edge="1">
          <mxGeometry width="50" height="50" relative="1" as="geometry">
            <mxPoint x="780" y="320" as="sourcePoint" />
            <mxPoint x="830" y="270" as="targetPoint" />
          </mxGeometry>
        </mxCell>
        <mxCell id="p8vY9JxcMufCk-BUBVPy-25" value="Category not removed" style="ellipse;whiteSpace=wrap;html=1;" parent="1" vertex="1">
          <mxGeometry x="860" y="451.25" width="120" height="45" as="geometry" />
        </mxCell>
        <mxCell id="p8vY9JxcMufCk-BUBVPy-26" value="" style="endArrow=none;html=1;rounded=0;entryX=0;entryY=0.5;entryDx=0;entryDy=0;exitX=0.5;exitY=1;exitDx=0;exitDy=0;" parent="1" source="p8vY9JxcMufCk-BUBVPy-14" target="p8vY9JxcMufCk-BUBVPy-25" edge="1">
          <mxGeometry width="50" height="50" relative="1" as="geometry">
            <mxPoint x="820" y="390" as="sourcePoint" />
            <mxPoint x="840" y="420" as="targetPoint" />
          </mxGeometry>
        </mxCell>
        <mxCell id="p8vY9JxcMufCk-BUBVPy-27" value="Item added to category file and save changes" style="ellipse;whiteSpace=wrap;html=1;" parent="1" vertex="1">
          <mxGeometry x="880" y="51.25" width="210" height="67.5" as="geometry" />
        </mxCell>
        <mxCell id="p8vY9JxcMufCk-BUBVPy-28" value="" style="endArrow=none;html=1;rounded=0;exitX=1;exitY=0.5;exitDx=0;exitDy=0;entryX=0;entryY=0.5;entryDx=0;entryDy=0;" parent="1" source="p8vY9JxcMufCk-BUBVPy-9" target="p8vY9JxcMufCk-BUBVPy-27" edge="1">
          <mxGeometry width="50" height="50" relative="1" as="geometry">
            <mxPoint x="830" y="110" as="sourcePoint" />
            <mxPoint x="880" y="60" as="targetPoint" />
          </mxGeometry>
        </mxCell>
        <mxCell id="p8vY9JxcMufCk-BUBVPy-29" value="" style="rhombus;whiteSpace=wrap;html=1;" parent="1" vertex="1">
          <mxGeometry x="845" y="175" width="35" height="40" as="geometry" />
        </mxCell>
        <mxCell id="p8vY9JxcMufCk-BUBVPy-30" value="" style="endArrow=none;html=1;rounded=0;exitX=1;exitY=0.5;exitDx=0;exitDy=0;entryX=0;entryY=0.5;entryDx=0;entryDy=0;" parent="1" source="p8vY9JxcMufCk-BUBVPy-10" target="p8vY9JxcMufCk-BUBVPy-29" edge="1">
          <mxGeometry width="50" height="50" relative="1" as="geometry">
            <mxPoint x="790" y="220" as="sourcePoint" />
            <mxPoint x="840" y="170" as="targetPoint" />
          </mxGeometry>
        </mxCell>
        <mxCell id="p8vY9JxcMufCk-BUBVPy-31" value="Item removed from category file and save changes" style="ellipse;whiteSpace=wrap;html=1;" parent="1" vertex="1">
          <mxGeometry x="910" y="130" width="190" height="60" as="geometry" />
        </mxCell>
        <mxCell id="p8vY9JxcMufCk-BUBVPy-32" value="" style="endArrow=none;html=1;rounded=0;exitX=0.5;exitY=0;exitDx=0;exitDy=0;entryX=0;entryY=0.5;entryDx=0;entryDy=0;" parent="1" source="p8vY9JxcMufCk-BUBVPy-29" target="p8vY9JxcMufCk-BUBVPy-31" edge="1">
          <mxGeometry width="50" height="50" relative="1" as="geometry">
            <mxPoint x="850" y="90" as="sourcePoint" />
            <mxPoint x="900" y="40" as="targetPoint" />
          </mxGeometry>
        </mxCell>
        <mxCell id="p8vY9JxcMufCk-BUBVPy-33" value="Item not removed" style="ellipse;whiteSpace=wrap;html=1;" parent="1" vertex="1">
          <mxGeometry x="942.5" y="200" width="125" height="40" as="geometry" />
        </mxCell>
        <mxCell id="p8vY9JxcMufCk-BUBVPy-34" value="" style="endArrow=none;html=1;rounded=0;exitX=0.5;exitY=1;exitDx=0;exitDy=0;entryX=0;entryY=0.5;entryDx=0;entryDy=0;" parent="1" source="p8vY9JxcMufCk-BUBVPy-29" target="p8vY9JxcMufCk-BUBVPy-33" edge="1">
          <mxGeometry width="50" height="50" relative="1" as="geometry">
            <mxPoint x="1080" y="210" as="sourcePoint" />
            <mxPoint x="1130" y="160" as="targetPoint" />
          </mxGeometry>
        </mxCell>
        <mxCell id="p8vY9JxcMufCk-BUBVPy-35" value="Select item info to edit (examples are editing stock numbers or price changes)" style="ellipse;whiteSpace=wrap;html=1;" parent="1" vertex="1">
          <mxGeometry x="605" y="267.5" width="230" height="70" as="geometry" />
        </mxCell>
        <mxCell id="p8vY9JxcMufCk-BUBVPy-36" value="" style="rhombus;whiteSpace=wrap;html=1;" parent="1" vertex="1">
          <mxGeometry x="910" y="282.5" width="40" height="40" as="geometry" />
        </mxCell>
        <mxCell id="p8vY9JxcMufCk-BUBVPy-37" value="" style="endArrow=none;html=1;rounded=0;exitX=1;exitY=0.5;exitDx=0;exitDy=0;entryX=0;entryY=0.5;entryDx=0;entryDy=0;" parent="1" source="p8vY9JxcMufCk-BUBVPy-35" target="p8vY9JxcMufCk-BUBVPy-36" edge="1">
          <mxGeometry width="50" height="50" relative="1" as="geometry">
            <mxPoint x="860" y="350" as="sourcePoint" />
            <mxPoint x="910" y="300" as="targetPoint" />
          </mxGeometry>
        </mxCell>
        <mxCell id="p8vY9JxcMufCk-BUBVPy-38" value="Item info changes saved" style="ellipse;whiteSpace=wrap;html=1;" parent="1" vertex="1">
          <mxGeometry x="980" y="250" width="120" height="45" as="geometry" />
        </mxCell>
        <mxCell id="p8vY9JxcMufCk-BUBVPy-39" value="Confirm" style="text;html=1;strokeColor=none;fillColor=none;align=center;verticalAlign=middle;whiteSpace=wrap;rounded=0;" parent="1" vertex="1">
          <mxGeometry x="775" y="172.5" width="60" height="15" as="geometry" />
        </mxCell>
        <mxCell id="p8vY9JxcMufCk-BUBVPy-40" value="Cancel" style="text;html=1;strokeColor=none;fillColor=none;align=center;verticalAlign=middle;whiteSpace=wrap;rounded=0;" parent="1" vertex="1">
          <mxGeometry x="775" y="200" width="60" height="20" as="geometry" />
        </mxCell>
        <mxCell id="p8vY9JxcMufCk-BUBVPy-41" value="Confirm" style="text;html=1;strokeColor=none;fillColor=none;align=center;verticalAlign=middle;whiteSpace=wrap;rounded=0;" parent="1" vertex="1">
          <mxGeometry x="845" y="280" width="60" height="15" as="geometry" />
        </mxCell>
        <mxCell id="p8vY9JxcMufCk-BUBVPy-42" value="Cancel" style="text;html=1;strokeColor=none;fillColor=none;align=center;verticalAlign=middle;whiteSpace=wrap;rounded=0;" parent="1" vertex="1">
          <mxGeometry x="845" y="307.5" width="60" height="20" as="geometry" />
        </mxCell>
        <mxCell id="p8vY9JxcMufCk-BUBVPy-43" value="item info unchanged" style="ellipse;whiteSpace=wrap;html=1;" parent="1" vertex="1">
          <mxGeometry x="980" y="307.5" width="120" height="42.5" as="geometry" />
        </mxCell>
        <mxCell id="p8vY9JxcMufCk-BUBVPy-44" value="" style="endArrow=none;html=1;rounded=0;entryX=0;entryY=0.5;entryDx=0;entryDy=0;exitX=0.5;exitY=1;exitDx=0;exitDy=0;" parent="1" source="p8vY9JxcMufCk-BUBVPy-36" target="p8vY9JxcMufCk-BUBVPy-43" edge="1">
          <mxGeometry width="50" height="50" relative="1" as="geometry">
            <mxPoint x="920" y="380" as="sourcePoint" />
            <mxPoint x="970" y="330" as="targetPoint" />
          </mxGeometry>
        </mxCell>
        <mxCell id="p8vY9JxcMufCk-BUBVPy-45" value="" style="endArrow=none;html=1;rounded=0;exitX=0.5;exitY=0;exitDx=0;exitDy=0;entryX=0;entryY=0.5;entryDx=0;entryDy=0;" parent="1" source="p8vY9JxcMufCk-BUBVPy-36" target="p8vY9JxcMufCk-BUBVPy-38" edge="1">
          <mxGeometry width="50" height="50" relative="1" as="geometry">
            <mxPoint x="880" y="390" as="sourcePoint" />
            <mxPoint x="930" y="340" as="targetPoint" />
          </mxGeometry>
        </mxCell>
      </root>
    </mxGraphModel>
  </diagram>
</mxfile>
